<svg viewBox="0 0 896 504" height="504" width="896" xmlns="http://www.w3.org/2000/svg" version="1.1"><g transform-origin="center" transform="scale(1, 1) rotate(0)"><rect x="0" y="0" width="896" height="504" fill="#ffffffff"></rect><linearGradient id="linear-gradient-r5"><stop offset="0%" stop-color="#ff0005ff" stop-opacity="100%"></stop><stop offset="100%" stop-color="#ff0092ff" stop-opacity="100%"></stop></linearGradient><filter id="shadow-r5" x="0" width="100%" y="-20%" height="150%"><feDropShadow dx="-4" dy="9" stdDeviation="10" flood-color="#000000ff"></feDropShadow></filter><path d="M0 0 0,249.94291297864166 C 44.80000000000001,249.72615555287894 134.39999999999998,245.93198738298565 224,248.8591258498281 C 313.6,251.78626431667058 358.4,265.0492694596499 448,264.57860531285405 C 537.6,264.1079411660582 582.4,252.65558655602484 672,246.50580511584874 C 761.6,240.35602367567267 851.2,236.36491951274868 896,233.82969811197367 L896 504 L0 504Z" fill="none" stroke-linecap="round" filter="url(#shadow-r5)" stroke-width="1" style="transition: all 0.4s cubic-bezier(0.16, 1, 0.3, 1) 0s; fill: url(&quot;#linear-gradient-r5&quot;);"></path><path d="M0 0 0,383.03524184028925 C 44.800000000000004,387.87421617740637 134.39999999999998,407.9545432797683 224,407.2301135258749 C 313.6,406.5056837719815 358.4,388.8786210604378 448,379.4130930708224 C 537.6,369.947565081207 582.4,376.03331058428745 672,359.902473577798 C 761.6,343.77163657130853 851.2,310.9876211462598 896,298.75890803837524 L896 504 L0 504Z" fill="none" stroke-linecap="round" filter="url(#shadow-r5)" stroke-width="1" style="transition: all 0.4s cubic-bezier(0.16, 1, 0.3, 1) 0s; fill: url(&quot;#linear-gradient-r5&quot;);"></path><path d="M0 0 0,549.8816217388958 C 44.8,542.3693735962759 134.4,525.1016555648508 224,512.3203810257961 C 313.6,499.53910648674145 358.4,507.7566706981646 448,485.97524904362234 C 537.6,464.19382738908007 582.4,415.2810382526542 672,403.4132727530847 C 761.6,391.5455072535152 851.2,421.99179178723693 896,426.63642154577497 L896 504 L0 504Z" fill="none" stroke-linecap="round" filter="url(#shadow-r5)" stroke-width="1" style="transition: all 0.4s cubic-bezier(0.16, 1, 0.3, 1) 0s; fill: url(&quot;#linear-gradient-r5&quot;);"></path></g></svg>